<svg xmlns="http://www.w3.org/2000/svg" style="width:0; height:0; visibility:hidden;">
    <symbol id="icon_arrow" viewBox="0 0 60 60">
      <rect x="0" y="0" width="60" height="60" style="fill: transparent" rx="50%" ry="50%"/><g transform="scale(0.6) translate(20, 20)"><path fill="none" stroke="rgb(255, 255, 255)" stroke-width="1.5" stroke-linecap="round" stroke-linejoin="round" stroke-miterlimit="10" d=" M59,17.232C51.236,24.998,29.996,42.83,29.996,42.83S8.765,24.937,1,17.17"/></g>
    </symbol>
    <symbol id="icon_gamepad" viewBox="0 0 128 128">
      <rect x="0" y="0" width="128" height="128" style="fill: transparent"/><g><path d="M115.039,53.009C107.217,24.97,96.868,17.79,87.317,20.455c-2.304,0.644-4.348,1.805-6.017,3.584 c-4.642,1.397-10.842,2.842-16.633,2.842c-6.173,0-12.81-1.642-17.526-3.116c-1.747-2.062-3.947-3.38-6.458-4.082 c-9.552-2.664-19.901,4.517-27.723,32.555c-7.822,28.038-6.419,52.927,3.131,55.592c7.914,2.207,18.933-11.54,26.93-32.258 c4.267-1.307,13.651-3.9,20.876-3.9c6.509,0,15.471,2.106,20.621,3.478c8.029,21.388,19.327,35.701,27.39,33.452 C121.46,105.935,122.861,81.047,115.039,53.009z M42.128,64.47c-8.146,0-14.754-6.891-14.754-15.395 c0-8.501,6.607-15.392,14.754-15.392c8.15,0,14.758,6.891,14.758,15.392C56.886,57.579,50.278,64.47,42.128,64.47z M77.726,53.633 c-2.516,0-4.556-2.041-4.556-4.557s2.04-4.557,4.556-4.557c2.518,0,4.555,2.041,4.555,4.557S80.243,53.633,77.726,53.633z M87.1,63.004c-2.518,0-4.559-2.039-4.559-4.556c0-2.516,2.041-4.556,4.559-4.556c2.516,0,4.554,2.04,4.554,4.556 C91.653,60.965,89.615,63.004,87.1,63.004z M87.1,44.26c-2.518,0-4.559-2.042-4.559-4.557c0-2.518,2.041-4.555,4.559-4.555 c2.516,0,4.554,2.037,4.554,4.555C91.653,42.218,89.615,44.26,87.1,44.26z M96.473,53.633c-2.518,0-4.559-2.041-4.559-4.557 s2.041-4.557,4.559-4.557s4.555,2.041,4.555,4.557S98.99,53.633,96.473,53.633z"/><path d="M55.129,47.666C55.095,47.382,55.052,47.1,55,46.82c-0.023-0.126-0.045-0.253-0.072-0.377 c-0.075-0.352-0.163-0.697-0.266-1.037c-0.008-0.021-0.012-0.043-0.018-0.064h-6.37l-1.896-1.896v-6.673 c-0.32-0.111-0.646-0.21-0.976-0.299c-0.056-0.016-0.11-0.029-0.166-0.043c-0.291-0.075-0.585-0.139-0.882-0.194 c-0.151-0.026-0.304-0.048-0.456-0.069c-0.224-0.033-0.447-0.068-0.675-0.09c-0.403-0.037-0.81-0.062-1.222-0.062 c-0.409,0-0.812,0.024-1.21,0.062c-0.179,0.017-0.354,0.042-0.531,0.065c-0.202,0.027-0.403,0.057-0.603,0.093 c-0.23,0.042-0.46,0.089-0.686,0.143c-0.122,0.028-0.241,0.062-0.36,0.093c-0.266,0.07-0.531,0.144-0.79,0.229v6.549l-2.093,2.092 h-6.37c-0.011,0.037-0.02,0.075-0.03,0.113c-0.095,0.32-0.179,0.646-0.251,0.975c-0.029,0.136-0.053,0.273-0.078,0.411 c-0.05,0.269-0.091,0.539-0.125,0.813c-0.015,0.128-0.031,0.256-0.044,0.385c-0.036,0.398-0.061,0.8-0.061,1.208 c0,0.42,0.024,0.835,0.063,1.244c0.024,0.261,0.066,0.517,0.106,0.772c0.021,0.129,0.036,0.26,0.059,0.387 c0.065,0.341,0.143,0.677,0.232,1.008c0.007,0.025,0.013,0.053,0.021,0.078c0.1,0.361,0.213,0.715,0.342,1.063h6.021l2.207,2.208 v5.784c0.258,0.086,0.521,0.158,0.785,0.229c0.122,0.032,0.245,0.066,0.369,0.095c0.224,0.054,0.449,0.1,0.677,0.141 c0.203,0.037,0.408,0.067,0.614,0.095c0.173,0.023,0.347,0.049,0.523,0.064c0.398,0.037,0.802,0.062,1.211,0.062 c0.413,0,0.82-0.024,1.224-0.062c0.222-0.021,0.44-0.055,0.659-0.088c0.159-0.022,0.317-0.044,0.476-0.071 c0.29-0.054,0.577-0.117,0.861-0.189c0.063-0.017,0.128-0.032,0.192-0.05c0.323-0.087,0.643-0.183,0.955-0.293 c0.004-0.001,0.006-0.002,0.009-0.004v-5.908l2.012-2.012h6.021c0.007-0.019,0.014-0.037,0.021-0.056 c0.116-0.322,0.222-0.648,0.313-0.98c0.014-0.053,0.027-0.106,0.04-0.159c0.083-0.312,0.157-0.628,0.218-0.948 c0.024-0.136,0.042-0.274,0.063-0.413c0.038-0.249,0.079-0.498,0.104-0.751c0.037-0.41,0.062-0.825,0.062-1.245 c0-0.41-0.025-0.813-0.062-1.213C55.159,47.911,55.144,47.789,55.129,47.666z"/></g>
    </symbol>
    <symbol id="icon_guarantee" viewBox="0 0 128 128">
      <rect x="0" y="0" width="128" height="128" style="fill: transparent"/><g><path d="M108.979,5.845H19.025c-3.36,0-6.084,2.722-6.084,6.08v104.147c0,3.36,2.724,6.083,6.084,6.083h89.953 c3.358,0,6.078-2.723,6.078-6.083V11.925C115.057,8.566,112.337,5.845,108.979,5.845z M105.496,38.379c0,0-8.89-3.409-19.073-6.384 v-3.402c-6.097-1.194-14.76-2.564-22.4-2.564c-7.636,0-16.343,1.368-22.486,2.562v3.405c-10.185,2.975-19.071,6.384-19.071,6.384 l4.385-5.948l-4.385-2.659c0,0,4.661-1.794,11.096-3.914v-4.133c0,0,16.791-4.303,30.462-4.303s30.292,4.303,30.292,4.303v4.104 c6.478,2.132,11.182,3.942,11.182,3.942l-4.387,2.659L105.496,38.379z M95.782,53.411c0.938,0,1.703,0.765,1.703,1.701 c0,0.942-0.765,1.703-1.703,1.703h-64.42c-0.938,0-1.698-0.761-1.698-1.703c0-0.937,0.76-1.701,1.698-1.701H95.782z M37.927,46.399 c0-1.199,0.977-2.175,2.177-2.175h46.941c1.2,0,2.175,0.976,2.175,2.175c0,1.205-0.975,2.177-2.175,2.177H40.104 C38.903,48.576,37.927,47.604,37.927,46.399z M31.362,60.883h64.42c0.938,0,1.703,0.763,1.703,1.702s-0.765,1.701-1.703,1.701 h-64.42c-0.938,0-1.698-0.761-1.698-1.701S30.424,60.883,31.362,60.883z M31.362,68.352h64.42c0.938,0,1.703,0.764,1.703,1.703 c0,0.94-0.765,1.701-1.703,1.701h-64.42c-0.938,0-1.698-0.761-1.698-1.701C29.664,69.116,30.424,68.352,31.362,68.352z M31.362,76.017h64.42c0.938,0,1.703,0.764,1.703,1.703c0,0.94-0.765,1.701-1.703,1.701h-64.42c-0.938,0-1.698-0.761-1.698-1.701 C29.664,76.781,30.424,76.017,31.362,76.017z M53.026,96.846l1.481-2.567l0.044-2.963l2.466-1.38l1.408-2.446h2.967l2.589-1.445 l2.423,1.445h2.826l1.482,2.569l2.546,1.516l-0.041,2.824l1.414,2.447l-1.48,2.565l-0.045,2.965l-2.464,1.379L69.23,106.2h-2.963 l-2.587,1.447l-2.429-1.447h-2.826l-1.479-2.567l-2.546-1.516l0.039-2.825L53.026,96.846z M31.362,102.904h17.439 c0.936,0,1.698,0.76,1.698,1.701s-0.763,1.704-1.698,1.704H31.362c-0.938,0-1.698-0.763-1.698-1.704S30.424,102.904,31.362,102.904z M96.157,106.309H78.722c-0.939,0-1.702-0.763-1.702-1.704s0.763-1.701,1.702-1.701h17.436c0.935,0,1.701,0.76,1.701,1.701 S97.092,106.309,96.157,106.309z"/></g>
    </symbol>
    <symbol id="icon_smile" viewBox="0 0 128 128">
      <rect x="0" y="0" width="128" height="128" style="fill: transparent"/><g><path d="M63.999,6.842c-31.566,0-57.157,25.589-57.157,57.159c0,31.566,25.591,57.157,57.157,57.157 c31.568,0,57.159-25.591,57.159-57.157C121.158,32.431,95.567,6.842,63.999,6.842z M63.999,111.684 c-26.333,0-47.681-21.35-47.681-47.684c0-26.335,21.348-47.683,47.681-47.683c26.334,0,47.683,21.347,47.683,47.683 C111.682,90.334,90.333,111.684,63.999,111.684z"/><path d="M46.633,56.875c5.945,0,10.781-4.837,10.781-10.781c0-5.946-4.836-10.782-10.781-10.782 c-5.945,0-10.782,4.836-10.782,10.782C35.852,52.038,40.688,56.875,46.633,56.875z"/><path d="M80.57,56.875c5.945,0,10.782-4.837,10.782-10.781c0-5.946-4.837-10.782-10.782-10.782 c-5.945,0-10.782,4.836-10.782,10.782C69.789,52.038,74.625,56.875,80.57,56.875z"/><path d="M91.145,78.988c-1.031,0-2.023,0.432-2.793,1.216c-6.528,6.644-15.172,10.302-24.34,10.302 c-9.278,0.001-18-3.73-24.558-10.509c-0.77-0.796-1.765-1.234-2.802-1.234c-1.62,0-3.153,1.051-3.816,2.613 c-0.638,1.508-0.327,3.122,0.833,4.321C41.721,94.02,52.493,98.603,64,98.604h0.001c11.386,0,22.082-4.504,30.116-12.681 c1.169-1.189,1.491-2.801,0.859-4.306C94.317,80.044,92.778,78.988,91.145,78.988z"/></g>
    </symbol>
    <symbol id="icon_star" viewBox="0 0 128 128">
      <rect x="0" y="0" width="128" height="128" style="fill: transparent"/><g><path class="st0" d="M64,6.933C32.532,6.933,6.932,32.533,6.932,64S32.532,121.067,64,121.067 c31.467,0,57.067-25.601,57.067-57.067S95.467,6.933,64,6.933z M87.674,93.985c0.268,0.824-0.025,1.727-0.727,2.236 c-0.351,0.255-0.764,0.382-1.176,0.382s-0.825-0.127-1.176-0.382L64,81.258L43.404,96.222c-0.701,0.51-1.65,0.51-2.352,0 s-0.994-1.412-0.727-2.236l7.866-24.213L27.596,54.81c-0.701-0.51-0.994-1.412-0.727-2.236s1.036-1.382,1.902-1.382H54.23 l7.867-24.213c0.268-0.824,1.036-1.382,1.902-1.382s1.635,0.558,1.902,1.382l7.867,24.213h25.457c0.866,0,1.635,0.558,1.902,1.382 s-0.025,1.727-0.727,2.236L79.806,69.772L87.674,93.985z"/></g>
    </symbol></svg>