<svg xmlns="http://www.w3.org/2000/svg" viewBox="0 0 128 128"><rect x="0" y="0" width="128" height="128" style="fill: transparent"></rect><g><path d="M115.039,53.009C107.217,24.97,96.868,17.79,87.317,20.455c-2.304,0.644-4.348,1.805-6.017,3.584 c-4.642,1.397-10.842,2.842-16.633,2.842c-6.173,0-12.81-1.642-17.526-3.116c-1.747-2.062-3.947-3.38-6.458-4.082 c-9.552-2.664-19.901,4.517-27.723,32.555c-7.822,28.038-6.419,52.927,3.131,55.592c7.914,2.207,18.933-11.54,26.93-32.258 c4.267-1.307,13.651-3.9,20.876-3.9c6.509,0,15.471,2.106,20.621,3.478c8.029,21.388,19.327,35.701,27.39,33.452 C121.46,105.935,122.861,81.047,115.039,53.009z M42.128,64.47c-8.146,0-14.754-6.891-14.754-15.395 c0-8.501,6.607-15.392,14.754-15.392c8.15,0,14.758,6.891,14.758,15.392C56.886,57.579,50.278,64.47,42.128,64.47z M77.726,53.633 c-2.516,0-4.556-2.041-4.556-4.557s2.04-4.557,4.556-4.557c2.518,0,4.555,2.041,4.555,4.557S80.243,53.633,77.726,53.633z M87.1,63.004c-2.518,0-4.559-2.039-4.559-4.556c0-2.516,2.041-4.556,4.559-4.556c2.516,0,4.554,2.04,4.554,4.556 C91.653,60.965,89.615,63.004,87.1,63.004z M87.1,44.26c-2.518,0-4.559-2.042-4.559-4.557c0-2.518,2.041-4.555,4.559-4.555 c2.516,0,4.554,2.037,4.554,4.555C91.653,42.218,89.615,44.26,87.1,44.26z M96.473,53.633c-2.518,0-4.559-2.041-4.559-4.557 s2.041-4.557,4.559-4.557s4.555,2.041,4.555,4.557S98.99,53.633,96.473,53.633z"></path><path d="M55.129,47.666C55.095,47.382,55.052,47.1,55,46.82c-0.023-0.126-0.045-0.253-0.072-0.377 c-0.075-0.352-0.163-0.697-0.266-1.037c-0.008-0.021-0.012-0.043-0.018-0.064h-6.37l-1.896-1.896v-6.673 c-0.32-0.111-0.646-0.21-0.976-0.299c-0.056-0.016-0.11-0.029-0.166-0.043c-0.291-0.075-0.585-0.139-0.882-0.194 c-0.151-0.026-0.304-0.048-0.456-0.069c-0.224-0.033-0.447-0.068-0.675-0.09c-0.403-0.037-0.81-0.062-1.222-0.062 c-0.409,0-0.812,0.024-1.21,0.062c-0.179,0.017-0.354,0.042-0.531,0.065c-0.202,0.027-0.403,0.057-0.603,0.093 c-0.23,0.042-0.46,0.089-0.686,0.143c-0.122,0.028-0.241,0.062-0.36,0.093c-0.266,0.07-0.531,0.144-0.79,0.229v6.549l-2.093,2.092 h-6.37c-0.011,0.037-0.02,0.075-0.03,0.113c-0.095,0.32-0.179,0.646-0.251,0.975c-0.029,0.136-0.053,0.273-0.078,0.411 c-0.05,0.269-0.091,0.539-0.125,0.813c-0.015,0.128-0.031,0.256-0.044,0.385c-0.036,0.398-0.061,0.8-0.061,1.208 c0,0.42,0.024,0.835,0.063,1.244c0.024,0.261,0.066,0.517,0.106,0.772c0.021,0.129,0.036,0.26,0.059,0.387 c0.065,0.341,0.143,0.677,0.232,1.008c0.007,0.025,0.013,0.053,0.021,0.078c0.1,0.361,0.213,0.715,0.342,1.063h6.021l2.207,2.208 v5.784c0.258,0.086,0.521,0.158,0.785,0.229c0.122,0.032,0.245,0.066,0.369,0.095c0.224,0.054,0.449,0.1,0.677,0.141 c0.203,0.037,0.408,0.067,0.614,0.095c0.173,0.023,0.347,0.049,0.523,0.064c0.398,0.037,0.802,0.062,1.211,0.062 c0.413,0,0.82-0.024,1.224-0.062c0.222-0.021,0.44-0.055,0.659-0.088c0.159-0.022,0.317-0.044,0.476-0.071 c0.29-0.054,0.577-0.117,0.861-0.189c0.063-0.017,0.128-0.032,0.192-0.05c0.323-0.087,0.643-0.183,0.955-0.293 c0.004-0.001,0.006-0.002,0.009-0.004v-5.908l2.012-2.012h6.021c0.007-0.019,0.014-0.037,0.021-0.056 c0.116-0.322,0.222-0.648,0.313-0.98c0.014-0.053,0.027-0.106,0.04-0.159c0.083-0.312,0.157-0.628,0.218-0.948 c0.024-0.136,0.042-0.274,0.063-0.413c0.038-0.249,0.079-0.498,0.104-0.751c0.037-0.41,0.062-0.825,0.062-1.245 c0-0.41-0.025-0.813-0.062-1.213C55.159,47.911,55.144,47.789,55.129,47.666z"></path></g></svg>