<svg xmlns="http://www.w3.org/2000/svg" viewBox="0 0 128 128"><rect x="0" y="0" width="128" height="128" style="fill: transparent"></rect><g><path class="st0" d="M64,6.933C32.532,6.933,6.932,32.533,6.932,64S32.532,121.067,64,121.067 c31.467,0,57.067-25.601,57.067-57.067S95.467,6.933,64,6.933z M87.674,93.985c0.268,0.824-0.025,1.727-0.727,2.236 c-0.351,0.255-0.764,0.382-1.176,0.382s-0.825-0.127-1.176-0.382L64,81.258L43.404,96.222c-0.701,0.51-1.65,0.51-2.352,0 s-0.994-1.412-0.727-2.236l7.866-24.213L27.596,54.81c-0.701-0.51-0.994-1.412-0.727-2.236s1.036-1.382,1.902-1.382H54.23 l7.867-24.213c0.268-0.824,1.036-1.382,1.902-1.382s1.635,0.558,1.902,1.382l7.867,24.213h25.457c0.866,0,1.635,0.558,1.902,1.382 s-0.025,1.727-0.727,2.236L79.806,69.772L87.674,93.985z"></path></g></svg>